<svg width="32" height="32" viewBox="0 0 32 32" fill="none" xmlns="http://www.w3.org/2000/svg">
<g clip-path="url(#clip0)">
<path d="M16 16C16.256 16 16.512 15.9027 16.7066 15.7067L21.7066 10.7067C22.0973 10.316 22.0973 9.68269 21.7066 9.29202C21.316 8.90136 20.6826 8.90136 20.292 9.29202L15.9986 13.5854L11.7053 9.29202C11.3146 8.90136 10.6813 8.90136 10.2906 9.29202C9.89997 9.68269 9.89997 10.316 10.2906 10.7067L15.2906 15.7067C15.488 15.9027 15.744 16 16 16Z" fill="#010101"/>
<path d="M16 16C16.552 16 17 15.552 17 15V1C17 0.448 16.552 0 16 0C15.448 0 15 0.448 15 1V15C15 15.552 15.448 16 16 16Z" fill="#010101"/>
<path d="M3 31.9998H29C30.6547 31.9998 32 30.6532 32 28.9998V13.6665C32 12.0132 30.6547 10.6665 29 10.6665H24.3333C23.7813 10.6665 23.3333 11.1145 23.3333 11.6665C23.3333 12.2185 23.7813 12.6665 24.3333 12.6665H29C29.552 12.6665 30 13.1158 30 13.6665V28.9998C30 29.5505 29.552 29.9998 29 29.9998H3C2.448 29.9998 2 29.5505 2 28.9998V13.6665C2 13.1158 2.448 12.6665 3 12.6665H7.66667C8.21867 12.6665 8.66667 12.2185 8.66667 11.6665C8.66667 11.1145 8.21867 10.6665 7.66667 10.6665H3C1.34533 10.6665 0 12.0132 0 13.6665V28.9998C0 30.6532 1.34533 31.9998 3 31.9998Z" fill="#010101"/>
<path d="M16 23.9946C16.584 23.9946 17.168 23.856 17.7 23.58L31.4627 16.3933C31.952 16.1373 32.1413 15.532 31.8867 15.0426C31.6293 14.5546 31.024 14.3667 30.5373 14.62L16.7773 21.8066C16.292 22.0586 15.7093 22.06 15.22 21.8053L1.46267 14.62C0.972 14.368 0.369331 14.5546 0.113331 15.0426C-0.141335 15.532 0.0479984 16.136 0.537333 16.3933L14.2973 23.58C14.8307 23.856 15.416 23.9946 16 23.9946Z" fill="#010101"/>
</g>
<defs>
<clipPath id="clip0">
<rect width="32" height="32" transform="matrix(-1 0 0 1 32 0)" fill="white"/>
</clipPath>
</defs>
</svg>
